<svg width="64" height="64" viewBox="0 0 64 64" xmlns="http://www.w3.org/2000/svg" role="img" aria-label="Astilba">
  <rect x="4" y="4" width="56" height="56" rx="12" fill="#121b24"/>
  <path fill="#fbfaf8" d="M 16.263 42.367 C 16.367 44.432 16.73 46.443 17.525 48.403 C 18.233 50.131 19.15 51.684 20.481 52.96 C 23.386 55.744 26.999 56.863 30.879 57.35 C 31.266 57.398 31.296 57.185 31.302 56.884 C 31.333 55.282 31.243 53.696 30.91 52.119 C 30.122 48.39 28.263 45.46 24.809 43.652 C 22.326 42.352 19.655 41.858 16.897 41.706 C 16.274 41.672 16.231 41.731 16.263 42.367 Z M 39.934 55.508 C 37.879 56.548 35.702 57.024 33.479 57.327 C 32.865 57.41 32.811 57.339 32.807 56.712 C 32.796 54.698 32.961 52.703 33.532 50.762 C 34.593 47.149 36.876 44.631 40.342 43.158 C 42.505 42.238 44.779 41.872 47.1 41.712 C 47.763 41.666 47.776 41.688 47.761 42.377 C 47.683 45.866 46.739 49.072 44.577 51.856 C 43.345 53.442 41.786 54.638 39.934 55.508 Z M 33.571 46.987 C 34.129 46.078 34.824 45.28 35.646 44.546 C 36.587 43.664 37.65 43.037 38.79 42.526 C 39.995 41.987 41.248 41.547 42.383 40.858 C 44.106 39.812 45.51 38.492 46.051 36.465 C 46.65 34.222 46.519 31.979 46.004 29.74 C 45.913 29.347 45.726 29.304 45.368 29.415 C 43.723 29.927 42.178 30.664 40.674 31.489 C 38.879 32.474 37.177 33.599 35.742 35.077 C 33.856 37.018 32.759 39.372 32.217 42.004 C 32.186 42.155 32.21 42.335 32.005 42.424 C 31.846 42.198 31.844 41.932 31.788 41.685 C 31.198 39.101 30.109 36.775 28.17 34.923 C 25.527 32.398 22.375 30.718 18.957 29.503 C 18.203 29.235 18.146 29.279 18.01 30.058 C 17.754 31.521 17.598 32.985 17.697 34.481 C 17.828 36.47 18.48 38.203 19.956 39.579 C 21.145 40.688 22.581 41.389 24.063 42.009 C 25.026 42.412 25.992 42.806 26.89 43.35 C 29.19 44.743 30.682 46.797 31.736 49.217 C 31.828 49.429 31.866 49.686 32.174 49.85 C 32.584 48.849 33.019 47.887 33.571 46.987 Z M 25.709 31.683 C 27.601 32.818 29.338 34.128 30.59 36.035 C 31.112 36.711 31.374 37.506 31.846 38.197 C 32.025 38.017 32.039 37.849 32.062 37.692 C 32.314 35.916 32.542 34.145 32.393 32.335 C 32.218 30.213 31.67 28.222 30.544 26.417 C 28.65 23.383 25.853 21.43 22.662 19.976 C 22.008 19.677 21.998 19.704 21.732 20.395 L 21.731 20.398 C 21.279 21.578 20.986 22.801 20.881 24.054 C 20.709 26.099 21.217 27.933 22.693 29.44 C 23.583 30.348 24.629 31.035 25.709 31.683 Z M 35.616 33.636 C 34.81 34.346 34.138 35.136 33.464 35.946 C 33.372 35.436 33.402 34.951 33.432 34.466 C 33.433 34.44 33.435 34.413 33.437 34.387 C 33.553 32.48 33.326 30.613 32.755 28.792 C 32.655 28.474 32.654 28.208 32.783 27.903 C 33.768 25.558 35.413 23.762 37.446 22.293 C 38.744 21.356 40.082 20.483 41.592 19.91 C 41.604 19.906 41.616 19.901 41.629 19.896 C 41.854 19.81 42.07 19.727 42.194 20.052 C 43.104 22.452 43.746 24.876 42.764 27.418 C 42.199 28.88 41.104 29.901 39.848 30.758 C 38.865 31.429 37.838 32.034 36.845 32.69 C 36.424 32.968 36.041 33.303 35.616 33.636 Z M 32.435 23.947 C 32.689 21.246 32.291 18.709 30.567 16.466 C 29.464 15.111 28.204 13.99 26.74 13.097 C 26.376 12.875 26.163 12.922 25.972 13.306 C 25.51 14.232 25.154 15.193 24.99 16.214 C 24.725 17.859 25.145 19.313 26.27 20.553 C 26.798 21.135 27.38 21.657 28.006 22.131 C 29.493 23.259 30.758 24.579 31.611 26.26 C 31.618 26.274 31.626 26.29 31.633 26.305 C 31.679 26.405 31.728 26.512 31.897 26.495 C 32.024 26.369 32.052 26.192 32.09 26.018 C 32.24 25.333 32.369 24.646 32.435 23.947 Z M 32.804 18.508 C 32.646 18.196 32.707 17.937 32.839 17.677 C 33.34 16.689 34.032 15.849 34.83 15.092 C 35.612 14.349 36.44 13.662 37.372 13.11 L 37.388 13.101 C 37.6 12.975 37.821 12.843 37.99 13.16 C 38.854 14.773 39.448 16.447 39.026 18.312 C 38.724 19.648 37.881 20.641 36.868 21.497 C 35.759 22.432 34.574 23.281 33.655 24.424 C 33.608 24.481 33.532 24.514 33.36 24.636 C 33.588 22.503 33.622 20.48 32.804 18.508 Z M 31.762 6.743 C 29.632 8.869 28.627 11.387 30.308 14.358 C 30.841 15.249 31.401 16.077 32.057 16.965 C 32.795 15.804 33.645 14.851 34.127 13.66 C 34.372 13.055 34.6 12.45 34.635 11.783 C 34.742 9.693 33.648 8.165 32.31 6.745 C 32.126 6.55 31.945 6.56 31.762 6.743 Z"/>
</svg>
